<svg width="22" height="28" viewBox="0 0 22 28" fill="none" xmlns="http://www.w3.org/2000/svg">
<path d="M21.3131 25.7364L20.7371 23.8584C20.3593 22.8094 19.6832 21.9055 18.7991 21.2675C17.915 20.6294 16.8651 20.2874 15.7895 20.2874H14.6069C14.3519 19.4176 14.3012 18.4967 14.4591 17.6022C14.5132 17.1247 14.5904 16.6503 14.6904 16.181C15.226 15.5702 15.5564 14.7945 15.6316 13.9711C15.6862 13.9874 15.7425 13.9971 15.7992 14C15.8783 13.9998 15.9567 13.9862 16.0316 13.9598C16.2545 13.8823 16.9327 13.6468 16.9327 10.8214C16.9707 10.34 16.8368 9.8609 16.5568 9.47589C17.0833 8.59438 17.3634 7.57744 17.3658 6.53926C17.3658 2.92335 17.0075 1.22752 16.129 0.686277C15.3631 0.21314 14.4654 0.727214 13.5141 1.27136C12.7072 1.73326 11.7928 2.25639 10.8739 2.25639C8.08724 2.25639 4.38237 2.70019 4.38237 6.5389C4.38117 6.7861 4.39803 7.03304 4.4328 7.27758C4.53388 8.05814 4.79189 8.8077 5.18998 9.47734C4.91083 9.86222 4.77738 10.3406 4.81505 10.8214C4.81505 13.6472 5.49327 13.8823 5.71622 13.9595C5.79107 13.9859 5.86953 13.9994 5.94856 13.9997C6.00532 13.9968 6.06158 13.987 6.1162 13.9707C6.19144 14.7942 6.52178 15.5698 7.05737 16.1806C7.15759 16.6508 7.2349 17.126 7.28902 17.6043C7.44654 18.4974 7.39584 19.4168 7.1412 20.2852H5.95865C4.87935 20.285 3.8259 20.6292 2.9401 21.2715C2.05429 21.9137 1.37864 22.8232 1.00409 23.8776L0.436468 25.7364C0.374347 25.9392 0.359038 26.1543 0.391787 26.3644C0.424536 26.5744 0.504417 26.7735 0.624936 26.9453C0.745455 27.1172 0.90321 27.257 1.08537 27.3534C1.26754 27.4497 1.46896 27.5 1.67328 27.5H20.0766C20.2809 27.5001 20.4824 27.4499 20.6646 27.3535C20.8468 27.2572 21.0046 27.1174 21.1251 26.9455C21.2457 26.7736 21.3255 26.5745 21.3583 26.3644C21.391 26.1543 21.3753 25.9392 21.3131 25.7364ZM16.0677 10.821C16.0677 12.2339 15.8792 12.8639 15.7714 13.0596C15.7025 12.9966 15.64 12.9266 15.5846 12.8505C15.5588 11.9736 15.6418 11.0969 15.8316 10.2421C15.851 10.2259 15.8715 10.211 15.8928 10.1976C15.9238 10.1927 15.9543 10.1843 15.9836 10.1726C16.0525 10.3808 16.0811 10.6012 16.0677 10.821ZM5.29015 7.15042C5.2613 6.94799 5.24734 6.74355 5.24842 6.5389C5.24842 4.96479 5.88769 3.15811 10.8742 3.15811C12.0151 3.15811 13.0331 2.57556 13.9311 2.06149C14.6598 1.6445 15.3471 1.25143 15.6883 1.46192C16.0583 1.68979 16.5001 2.75598 16.5001 6.5389C16.4987 7.3484 16.2957 8.14368 15.9109 8.84698L15.7119 8.84082L13.8567 6.37261C13.7689 6.2431 13.6575 6.13288 13.5288 6.04822C13.4001 5.96357 13.2567 5.90614 13.1067 5.87923C12.9567 5.85232 12.8031 5.85644 12.6547 5.89137C12.5062 5.92629 12.3658 5.99134 12.2415 6.08279C12.2241 6.09559 12.207 6.10887 12.1904 6.12264C11.8115 6.42396 11.3478 6.58686 10.8712 6.58613C10.3945 6.58541 9.93129 6.42112 9.55326 6.11865C9.31212 5.92114 9.00553 5.83147 8.70093 5.86938C8.39633 5.90729 8.11866 6.06967 7.92899 6.3208C7.91646 6.33747 7.90429 6.3545 7.8942 6.37188L5.92421 8.99189C5.59168 8.43094 5.37568 7.80364 5.29015 7.15042ZM6.16455 12.8502C6.1091 12.9263 6.0464 12.9965 5.97742 13.0596C5.8696 12.8639 5.68109 12.2325 5.68109 10.821C5.66739 10.6012 5.69552 10.3807 5.76387 10.1722C5.78835 10.1804 5.8135 10.1864 5.839 10.1899C5.86745 10.2066 5.89466 10.2255 5.92039 10.2465C6.10836 11.0999 6.19041 11.975 6.16455 12.8502ZM6.97947 13.9406C6.97947 13.8406 6.98329 13.7406 6.9906 13.6508C7.11803 12.3051 7.01092 10.9464 6.67444 9.64037L6.67026 9.62588C6.66505 9.60305 6.65913 9.5824 6.65391 9.56248C6.6487 9.54255 6.64522 9.52118 6.64035 9.50125L8.57383 6.92907C8.59523 6.89226 8.62341 6.86023 8.65675 6.83482C8.69009 6.80941 8.72793 6.79113 8.76809 6.78103C8.80824 6.77093 8.84993 6.7692 8.89072 6.77596C8.93152 6.78271 8.97063 6.79781 9.00581 6.82039C9.01493 6.82618 9.02375 6.83247 9.03224 6.83922C9.56244 7.26051 10.211 7.48837 10.8778 7.48765C11.5447 7.48693 12.1928 7.25767 12.7222 6.83524C12.7887 6.784 12.872 6.76229 12.9539 6.77485C13.0357 6.78741 13.1095 6.83322 13.159 6.90226C13.1649 6.91059 13.1705 6.91929 13.1757 6.92798L15.1071 9.49654C15.0987 9.53531 15.0946 9.569 15.0852 9.60957L15.065 9.68674C15.0573 9.71536 15.05 9.74398 15.048 9.75557C14.7339 11.0242 14.636 12.3404 14.7586 13.6443C14.7662 13.7403 14.7701 13.8403 14.7701 13.9403C14.7701 14.8133 13.8658 16.0578 12.2203 17.4453C11.8397 17.7668 11.3646 17.9422 10.8746 17.9422C10.3846 17.9422 9.9095 17.7668 9.52891 17.4453C7.88447 16.0578 6.97947 14.8133 6.97947 13.9403V13.9406ZM8.1495 17.5011C8.14498 17.4594 8.13698 17.4145 8.13176 17.3725C8.39296 17.6261 8.67017 17.8797 8.98215 18.1438C9.51719 18.5956 10.1851 18.8422 10.8739 18.8422C11.5627 18.8422 12.2306 18.5956 12.7656 18.1438C13.0787 17.8804 13.3569 17.6243 13.6171 17.371C13.6122 17.4123 13.6042 17.4562 13.5997 17.4967C13.4418 18.8767 13.519 19.9403 13.8247 20.6707C13.4648 21.1219 13.014 21.4851 12.5041 21.7343C11.9943 21.9836 11.438 22.1128 10.8748 22.1128C10.3116 22.1128 9.75526 21.9836 9.24541 21.7343C8.73557 21.4851 8.28469 21.1219 7.92481 20.6707C8.23019 19.9418 8.3074 18.8788 8.1495 17.5011ZM2.65167 26.5983H1.67293C1.60484 26.5982 1.53772 26.5814 1.47703 26.5493C1.41634 26.5171 1.36379 26.4705 1.32363 26.4132C1.28348 26.3559 1.25686 26.2896 1.24594 26.2196C1.23502 26.1496 1.2401 26.0779 1.26078 26.0103L1.82249 24.1754C2.01273 23.6511 2.29392 23.1678 2.65202 22.7494L2.65167 26.5983ZM4.38272 26.5983H3.51737V21.9546C3.78857 21.768 4.07894 21.6136 4.38307 21.4941L4.38272 26.5983ZM6.11377 26.5983H5.24842V21.2532C5.41174 21.226 5.57639 21.2082 5.74161 21.2C5.8131 21.5659 5.93865 21.9182 6.11377 22.2441V26.5983ZM7.84482 26.5983H6.97947V23.3697C7.24527 23.615 7.53535 23.8302 7.84482 24.0116V26.5983ZM9.57586 26.5983H8.71051V24.4246C8.99271 24.5312 9.28206 24.6159 9.57621 24.6782L9.57586 26.5983ZM11.3069 26.5983H10.4416V24.8014C10.5845 24.8112 10.7285 24.8188 10.8742 24.8188C11.02 24.8188 11.164 24.8112 11.3069 24.8014V26.5983ZM13.038 26.5983H12.1726V24.6782C12.4668 24.6159 12.7561 24.5312 13.0383 24.4246L13.038 26.5983ZM14.769 26.5983H13.9037V24.0116C14.2132 23.8307 14.5034 23.6162 14.7694 23.3715L14.769 26.5983ZM10.8735 23.9174C8.77834 23.9174 7.02329 22.752 6.63027 21.1891H7.2038C7.64592 21.7593 8.20493 22.2192 8.83985 22.5352C9.47477 22.8512 10.1695 23.0152 10.8732 23.0152C11.5769 23.0152 12.2716 22.8512 12.9065 22.5352C13.5415 22.2192 14.1005 21.7593 14.5426 21.1891H15.1161C14.7245 22.752 12.9694 23.9174 10.8746 23.9174H10.8735ZM16.4997 26.5983H15.6358V22.2441C15.8109 21.9183 15.9364 21.5662 16.0079 21.2003C16.1731 21.2085 16.3378 21.2263 16.5011 21.2536L16.4997 26.5983ZM18.2308 26.5983H17.3661V21.4941C17.6702 21.6136 17.9606 21.768 18.2318 21.9546L18.2308 26.5983ZM20.2067 26.5769C20.1643 26.591 20.1201 26.5982 20.0755 26.5983H19.0965V22.7491C19.4504 23.1612 19.729 23.6372 19.9187 24.1536L20.4877 26.0099C20.5227 26.1239 20.5128 26.2476 20.4602 26.3539C20.4077 26.4602 20.3167 26.5404 20.2074 26.5769H20.2067Z" fill="white"/>
</svg>
