<svg width="22" height="28" viewBox="0 0 22 28" fill="none" xmlns="http://www.w3.org/2000/svg">
<path d="M21.8141 25.7369L21.238 23.8601C20.9742 23.1242 20.5609 22.4561 20.0266 21.9015C19.8697 21.7405 19.7034 21.5897 19.5287 21.4499C20.099 21.0987 20.5598 20.5836 20.8557 19.9664C20.9043 19.8582 20.9096 19.7344 20.8704 19.6221C20.8313 19.5098 20.751 19.4183 20.6471 19.3677C20.6287 19.3587 20.6098 19.3511 20.5904 19.345C18.2063 18.5856 18.9607 15.284 19.1284 14.6552C19.1284 14.6526 19.1436 14.6093 19.1446 14.6064C19.1507 14.5775 19.1539 14.548 19.1541 14.5184C19.4499 13.4012 19.5992 12.2475 19.5981 11.0887C19.5981 5.24995 15.9092 0.5 11.3746 0.5C6.84005 0.5 3.1515 5.24995 3.1515 11.0891C3.14982 12.268 3.30396 13.4415 3.60958 14.5767C3.60997 14.5945 3.61138 14.6123 3.6138 14.6299C3.78999 15.2843 4.54369 18.5856 2.1596 19.3457C2.10039 19.3646 2.04576 19.3965 1.9994 19.4392C1.95305 19.482 1.91604 19.5346 1.89089 19.5935C1.86574 19.6524 1.85302 19.7162 1.85361 19.7807C1.85419 19.8452 1.86805 19.9087 1.89427 19.9671C2.19021 20.5843 2.65099 21.0995 3.22127 21.4507C3.04654 21.5904 2.88026 21.7412 2.72338 21.9023C2.18434 22.463 1.76862 23.1389 1.5049 23.8832L0.936539 25.7369C0.874394 25.9395 0.859043 26.1545 0.891733 26.3645C0.924422 26.5744 1.00423 26.7734 1.12467 26.9452C1.24511 27.117 1.40279 27.2567 1.58488 27.3531C1.76697 27.4495 1.96835 27.4999 2.17263 27.5H20.577C20.7811 27.4999 20.9824 27.4497 21.1644 27.3535C21.3464 27.2573 21.504 27.1178 21.6246 26.9463C21.7451 26.7747 21.825 26.576 21.858 26.3663C21.8909 26.1566 21.8759 25.9417 21.8141 25.7391V25.7369ZM3.1515 26.5987H2.17263C2.10456 26.5992 2.03735 26.5828 1.97657 26.5509C1.91578 26.519 1.86317 26.4725 1.82309 26.4152C1.7825 26.358 1.75566 26.2916 1.74481 26.2214C1.73396 26.1511 1.73942 26.0793 1.76072 26.0117L2.32239 24.1775C2.51232 23.6534 2.79339 23.1703 3.1515 22.7523V26.5987ZM2.92775 19.9954C4.8654 19.0104 4.98873 16.4579 4.46018 14.4351C4.45983 14.4183 4.45854 14.4015 4.45631 14.3848C4.16367 13.3128 4.01648 12.2035 4.01902 11.0891C4.01902 5.74702 7.31962 1.40135 11.3767 1.40135C15.4339 1.40135 18.7309 5.74592 18.7309 11.0891C18.7335 12.2035 18.5863 13.3128 18.2937 14.3848C18.2914 14.4015 18.2901 14.4183 18.2898 14.4351C17.7588 16.4604 17.8828 19.0122 19.8226 19.9983C19.6789 20.2182 19.4941 20.4056 19.2792 20.5493C19.0643 20.693 18.8238 20.7901 18.572 20.8347C17.86 20.477 17.0797 20.291 16.2891 20.2907H15.1076C14.8528 19.4209 14.8022 18.5001 14.9603 17.6057C15.0139 17.1076 15.0907 16.6813 15.1527 16.3805C15.7169 15.784 16.0644 15.0019 16.1358 14.168C16.1358 14.1042 16.1305 14.0393 16.1277 13.9751C16.184 13.9922 16.2421 14.0023 16.3007 14.0051C16.3797 14.0051 16.4581 13.9916 16.5329 13.9652C16.7559 13.8877 17.4346 13.6522 17.4346 10.8282C17.4346 10.5245 17.4346 9.60113 16.8373 9.32196C16.7517 9.28311 16.6598 9.26121 16.5664 9.25739C16.5664 9.22071 16.5692 9.18806 16.5692 9.15064C16.5692 9.11322 16.5639 9.07727 16.5628 9.04058C16.8498 8.45918 17.0002 7.81525 17.0019 7.16159C17.0019 4.4814 14.4779 2.30086 11.3753 2.30086C8.27277 2.30086 5.74878 4.4814 5.74878 7.16159C5.74994 7.81553 5.90005 8.45985 6.18677 9.04169C6.18677 9.07837 6.18043 9.11506 6.18043 9.15174C6.18043 9.18842 6.18043 9.22291 6.18289 9.25849C6.08961 9.26226 5.99783 9.28416 5.91228 9.32306C5.31502 9.60186 5.31502 10.5256 5.31502 10.8293C5.31502 13.6541 5.99332 13.8888 6.21672 13.9663C6.29152 13.9927 6.36995 14.0062 6.44893 14.0062C6.50742 14.0034 6.56538 13.9933 6.62159 13.9762C6.61877 14.0407 6.61384 14.1038 6.61384 14.1691C6.68515 15.0031 7.03268 15.7853 7.59693 16.3819C7.6586 16.6824 7.73541 17.109 7.78968 17.6094C7.94727 18.503 7.89652 19.4229 7.64168 20.2918H6.45915C5.66866 20.2922 4.88844 20.4781 4.17653 20.8358C3.92518 20.7898 3.68522 20.6919 3.47081 20.5478C3.2564 20.4037 3.07187 20.2164 2.9281 19.9969L2.92775 19.9954ZM8.6498 17.5008L8.64733 17.4814C8.90702 17.7217 9.18328 17.9645 9.48913 18.211C10.0298 18.6435 10.6925 18.8779 11.3743 18.8779C12.0561 18.8779 12.7188 18.6435 13.2594 18.211C13.566 17.9638 13.8433 17.7206 14.103 17.4803L14.1009 17.4972C13.943 18.8769 14.0202 19.9404 14.3257 20.6708C13.9657 21.1218 13.5148 21.4848 13.0049 21.7339C12.4949 21.983 11.9386 22.1122 11.3753 22.1122C10.8121 22.1122 10.2557 21.983 9.74582 21.7339C9.23591 21.4848 8.78495 21.1218 8.42499 20.6708C8.73014 19.9448 8.80731 18.8816 8.6498 17.5041V17.5008ZM12.7267 17.5008C12.3387 17.8113 11.8631 17.9796 11.3738 17.9796C10.8844 17.9796 10.4088 17.8113 10.0208 17.5008C9.39307 17.0096 8.81459 16.4536 8.29426 15.8412C7.85167 15.3927 7.56547 14.8032 7.48101 14.1662C7.48101 14.0719 7.48488 13.9773 7.49158 13.8947C7.50849 13.7293 7.51765 13.5601 7.52681 13.3588C7.57929 12.2947 7.47363 11.2285 7.21356 10.198C7.19876 10.1298 7.17833 10.0615 7.16141 9.99916C7.15613 9.97825 7.15366 9.95954 7.14873 9.93899C7.14873 9.92652 7.15401 9.91442 7.15366 9.90231C7.92886 9.63268 9.57229 8.97345 10.5624 7.95471C11.8891 9.17228 14.368 9.9489 15.5234 10.26C15.2721 11.2832 15.1715 12.3401 15.2249 13.3947C15.2334 13.5605 15.2425 13.7296 15.2602 13.887C15.2679 13.9776 15.2714 14.0704 15.2714 14.1665C15.1868 14.8042 14.9003 15.3942 14.4571 15.843C13.9358 16.4561 13.3561 17.0127 12.727 17.5041L12.7267 17.5008ZM6.62229 7.30246C6.62018 7.25514 6.61384 7.20891 6.61384 7.16122C6.61384 4.97775 8.74952 3.20183 11.3746 3.20183C13.9997 3.20183 16.1354 4.97775 16.1354 7.16122C16.1354 7.20855 16.1291 7.25514 16.127 7.30246C15.3215 5.68613 13.4959 4.55367 11.3746 4.55367C9.2534 4.55367 7.4278 5.6876 6.62229 7.30393V7.30246ZM6.66599 12.8525C6.61027 12.9296 6.5471 13.0005 6.47747 13.0642C6.36965 12.8686 6.18113 12.2373 6.18113 10.8264C6.16522 10.6001 6.19573 10.3729 6.27063 10.1598C6.28367 10.165 6.30058 10.1752 6.31609 10.1837C6.32173 10.2068 6.32419 10.2266 6.33018 10.2501C6.34428 10.2992 6.35837 10.348 6.37317 10.4137C6.57288 11.2103 6.67132 12.0307 6.66599 12.854V12.8525ZM16.3803 10.3972C16.3909 10.3484 16.4053 10.2996 16.424 10.2336C16.4286 10.216 16.4304 10.2006 16.4346 10.1833C16.449 10.1749 16.4638 10.1672 16.479 10.1602C16.5539 10.3733 16.5844 10.6005 16.5685 10.8268C16.5685 12.2377 16.38 12.869 16.2721 13.0645C16.2021 13.0008 16.1385 12.9296 16.0826 12.8521C16.0783 12.0243 16.1784 11.1994 16.3803 10.3987V10.3972ZM11.3746 5.45648C13.7608 5.45648 15.7027 7.11353 15.7027 9.15064C15.7027 9.2042 15.7027 9.25409 15.6988 9.31352C15.6988 9.33406 15.6936 9.35607 15.6922 9.37662C13.9973 8.91879 12.0596 8.16015 11.0991 7.2489C11.1482 7.16196 11.1917 7.07176 11.2295 6.9789C11.2528 6.92387 11.2653 6.86454 11.2662 6.80441C11.2672 6.74427 11.2566 6.68454 11.235 6.62874C11.2135 6.57294 11.1814 6.52219 11.1408 6.47948C11.1001 6.43677 11.0516 6.40296 10.9982 6.38005C10.9448 6.35714 10.8875 6.34559 10.8297 6.34608C10.772 6.34657 10.7149 6.35908 10.6618 6.38289C10.6088 6.40669 10.5608 6.44131 10.5208 6.4847C10.4808 6.52809 10.4496 6.57937 10.4289 6.63553C10.3696 6.7773 10.2926 6.91028 10.1998 7.03099C9.48983 7.9958 7.88658 8.67961 7.05641 8.98372C7.1593 7.02512 9.05396 5.45648 11.3746 5.45648ZM4.88302 26.5987H4.01726V21.9573C4.13119 21.8783 4.24865 21.8049 4.36963 21.7372C4.46507 21.7259 4.55407 21.6814 4.62227 21.611C4.7086 21.5699 4.79564 21.531 4.88443 21.4958L4.88302 26.5987ZM6.61419 26.5987H5.74843V21.2559C5.91179 21.2286 6.07648 21.2109 6.24174 21.2027C6.31335 21.5684 6.439 21.9204 6.61419 22.246V26.5987ZM8.34535 26.5987H7.4796V23.3704C7.74561 23.6151 8.03582 23.8297 8.34535 24.0105V26.5987ZM10.0765 26.5987H9.21076V24.4265C9.49297 24.5331 9.78234 24.6178 10.0765 24.68V26.5987ZM11.8077 26.5987H10.9437V24.8011C11.0868 24.811 11.2305 24.8183 11.3764 24.8183C11.5223 24.8183 11.666 24.8106 11.8091 24.8011L11.8077 26.5987ZM13.5389 26.5987H12.6731V24.68C12.9673 24.6178 13.2567 24.5331 13.5389 24.4265V26.5987ZM15.27 26.5987H14.4043V24.0113C14.7138 23.8304 15.004 23.6158 15.27 23.3711V26.5987ZM11.3746 23.9207C9.27982 23.9207 7.5247 22.7556 7.13075 21.1935H7.70405C8.1462 21.7637 8.70532 22.2236 9.34039 22.5396C9.97547 22.8555 10.6704 23.0195 11.3743 23.0195C12.0781 23.0195 12.7731 22.8555 13.4082 22.5396C14.0432 22.2236 14.6024 21.7637 15.0445 21.1935H15.6182C15.2249 22.7537 13.4694 23.9188 11.3746 23.9188V23.9207ZM17.0012 26.5987H16.1354V22.246C16.3106 21.9204 16.4362 21.5684 16.5079 21.2027C16.6731 21.2109 16.8378 21.2286 17.0012 21.2559V26.5987ZM18.7324 26.5987H17.8669V21.4969C17.9557 21.5336 18.0431 21.5703 18.1291 21.6121C18.1973 21.6825 18.2863 21.7269 18.3818 21.7383C18.5016 21.8055 18.619 21.8789 18.7341 21.9584L18.7324 26.5987ZM20.7091 26.577C20.6664 26.5913 20.6218 26.5986 20.577 26.5987H19.5981V22.7512C19.9522 23.1629 20.2308 23.6388 20.4202 24.1551L20.9892 26.0106C21.0242 26.1244 21.0144 26.248 20.9619 26.3542C20.9093 26.4604 20.8184 26.5406 20.7091 26.577Z" fill="#00927B"/>
</svg>
