<svg width="90" height="69" viewBox="0 0 90 69" fill="none" xmlns="http://www.w3.org/2000/svg">
<path d="M88.5938 46.0211H60.9376V42.5366C60.9376 42.1622 60.7894 41.8031 60.5257 41.5383C60.262 41.2735 59.9043 41.1248 59.5313 41.1248H30.4687C30.0957 41.1248 29.738 41.2735 29.4743 41.5383C29.2106 41.8031 29.0624 42.1622 29.0624 42.5366V49.2031H1.40625C1.03329 49.2031 0.675604 49.3518 0.411881 49.6166C0.148158 49.8814 0 50.2405 0 50.6149L0 67.5881C0 67.9626 0.148158 68.3217 0.411881 68.5865C0.675604 68.8512 1.03329 69 1.40625 69H88.5938C88.9667 69 89.3244 68.8512 89.5881 68.5865C89.8518 68.3217 90 67.9626 90 67.5881V47.4338C90.0001 47.2484 89.9638 47.0647 89.8932 46.8933C89.8226 46.7219 89.719 46.5661 89.5884 46.4349C89.4578 46.3037 89.3028 46.1997 89.1321 46.1287C88.9614 46.0576 88.7785 46.0211 88.5938 46.0211ZM58.1251 43.9485V66.1763H31.8749V43.9485H58.1251ZM2.8125 52.0268H29.0624V66.1763H2.8125V52.0268ZM87.1875 66.1763H60.9376V48.8457H87.1875V66.1763ZM41.8496 51.5759C41.7384 51.4279 41.6572 51.2594 41.6108 51.0799C41.5645 50.9004 41.5537 50.7136 41.5793 50.5299C41.6048 50.3463 41.6661 50.1695 41.7597 50.0097C41.8533 49.8499 41.9774 49.7101 42.1247 49.5984L44.8979 47.4961C45.1066 47.3379 45.3551 47.2413 45.6155 47.2171C45.8759 47.1929 46.1379 47.2421 46.372 47.3591C46.6061 47.4762 46.803 47.6564 46.9407 47.8797C47.0784 48.1029 47.1514 48.3602 47.1514 48.6228V60.0901H48.4102C48.7831 60.0901 49.1408 60.2389 49.4045 60.5036C49.6682 60.7684 49.8164 61.1275 49.8164 61.502C49.8164 61.8764 49.6682 62.2355 49.4045 62.5003C49.1408 62.7651 48.7831 62.9138 48.4102 62.9138H43.0805C42.7075 62.9138 42.3498 62.7651 42.0861 62.5003C41.8224 62.2355 41.6742 61.8764 41.6742 61.502C41.6742 61.1275 41.8224 60.7684 42.0861 60.5036C42.3498 60.2389 42.7075 60.0901 43.0805 60.0901H44.3389V51.458L43.8193 51.8519C43.5216 52.0775 43.1469 52.1752 42.7775 52.1234C42.4081 52.0717 42.0744 51.8747 41.8496 51.5759ZM32.8101 21.3144C31.8825 21.8224 31.0779 22.5294 30.4535 23.3851C29.829 24.2409 29.4001 25.2242 29.1973 26.2653C29.1828 26.3392 29.1743 26.4142 29.1716 26.4894C29.0883 28.9169 29.0704 31.378 29.1189 33.8044C29.1392 34.6894 29.5028 35.5315 30.1324 36.1512C30.7619 36.7709 31.6076 37.1194 32.4893 37.1223H32.5195C40.8006 37.0457 49.1985 37.0457 57.4805 37.1223H57.5119C58.3936 37.1194 59.2393 36.7709 59.8688 36.1512C60.4983 35.5314 60.8619 34.6894 60.8822 33.8044C60.93 31.376 60.9122 28.9148 60.8295 26.4894C60.8268 26.4141 60.8182 26.3392 60.8036 26.2653C60.6008 25.2242 60.1719 24.2409 59.5474 23.3851C58.923 22.5294 58.1183 21.8224 57.1908 21.3144C57.0846 21.2561 56.9713 21.2117 56.8538 21.1824C54.3032 20.5485 51.7057 19.9599 49.1333 19.4333C48.9201 19.3897 48.6997 19.3964 48.4894 19.4528C48.2792 19.5092 48.0848 19.6138 47.9217 19.7584L45 22.3467L42.0792 19.7584C41.916 19.6138 41.7217 19.5092 41.5115 19.4528C41.3012 19.3964 41.0808 19.3897 40.8676 19.4333C38.2953 19.9599 35.6978 20.5485 33.1471 21.1824C33.0296 21.2117 32.9163 21.2561 32.8101 21.3144ZM40.7445 22.3417L44.0694 25.289C44.3264 25.5167 44.6573 25.6423 45 25.6423C45.3427 25.6423 45.6736 25.5167 45.9306 25.289L49.2555 22.3417C51.5016 22.8105 53.7622 23.3258 55.9879 23.8771C56.5013 24.1848 56.9466 24.5946 57.2964 25.0814C57.6462 25.5682 57.8931 26.1217 58.0219 26.7079C58.0997 29.0435 58.1159 31.4117 58.07 33.7496C58.0666 33.8962 58.0063 34.0357 57.902 34.1383C57.7976 34.241 57.6575 34.2987 57.5114 34.2991H57.5061C53.3568 34.2608 49.1785 34.2416 45 34.2416C40.8215 34.2416 36.6432 34.2608 32.4939 34.2991H32.4888C32.3426 34.2987 32.2025 34.2409 32.0981 34.1383C31.9937 34.0356 31.9334 33.8961 31.93 33.7494C31.8841 31.414 31.9004 29.0456 31.9783 26.7077C32.107 26.1216 32.3539 25.568 32.7036 25.0812C33.0534 24.5944 33.4987 24.1846 34.0121 23.877C36.238 23.3258 38.4986 22.8105 40.7445 22.3417ZM45.0102 17.1734C48.6722 17.1734 51.3568 12.5184 51.8368 8.01789C52.2738 3.92014 50.7567 0.982235 47.8767 0.344074C45.9931 -0.114691 44.0275 -0.114691 42.1439 0.344074C39.2521 0.984706 37.7271 3.91714 38.1628 8.00341C38.6434 12.5108 41.336 17.1734 45.0102 17.1734ZM42.7588 3.0995L42.7961 3.09085C44.2508 2.73412 45.7696 2.73412 47.2243 3.09085L47.2616 3.0995C49.3743 3.55835 49.1138 7.02676 49.0402 7.71734C48.6768 11.1264 46.7181 14.3497 45.0102 14.3497C43.2923 14.3497 41.3237 11.1201 40.9593 7.70251C40.8563 6.7368 40.6818 3.55111 42.7588 3.0995ZM76.9219 27.4389L74.9347 29.1998L72.9475 27.4389C72.7843 27.2943 72.59 27.1897 72.3798 27.1333C72.1696 27.0769 71.9492 27.0702 71.736 27.1138C69.7823 27.5137 67.8099 27.9609 65.8731 28.442C65.7556 28.4713 65.6424 28.5156 65.5362 28.574C64.7897 28.983 64.1421 29.552 63.6395 30.2408C63.1369 30.9295 62.7916 31.7209 62.6282 32.5588C62.6138 32.6327 62.6053 32.7077 62.6027 32.783C62.5393 34.6284 62.5257 36.4992 62.5621 38.3434C62.5804 39.1077 62.8966 39.8343 63.4428 40.367C63.989 40.8997 64.7216 41.1959 65.4831 41.192C71.7546 41.1339 78.1147 41.1339 84.3862 41.192H84.4131C85.1702 41.1894 85.8964 40.8902 86.4369 40.3581C86.9775 39.8259 87.2898 39.1029 87.3072 38.343C87.3436 36.499 87.3301 34.6283 87.2666 32.7828C87.2641 32.7075 87.2556 32.6326 87.2411 32.5587C87.0778 31.7208 86.7325 30.9293 86.2299 30.2405C85.7273 29.5518 85.0797 28.9828 84.3332 28.5739C84.2269 28.5155 84.1137 28.4712 83.9962 28.4419C82.0594 27.9606 80.087 27.5136 78.1334 27.1136C77.9201 27.0701 77.6997 27.0767 77.4895 27.1332C77.2793 27.1896 77.085 27.2943 76.9219 27.4389ZM83.127 31.135C83.461 31.3428 83.7508 31.6149 83.9797 31.9356C84.2085 32.2564 84.372 32.6194 84.4606 33.0037C84.5186 34.7583 84.5309 36.5352 84.4958 38.2873C84.4948 38.3088 84.4857 38.3291 84.4704 38.3441C84.4551 38.3592 84.4347 38.3679 84.4133 38.3685C81.2688 38.3393 78.1028 38.3249 74.9357 38.3249C71.7687 38.3249 68.6027 38.3393 65.4581 38.3685C65.4367 38.3679 65.4164 38.3592 65.4011 38.3442C65.3858 38.3292 65.3767 38.3089 65.3757 38.2875C65.3405 36.5352 65.353 34.7578 65.4108 33.0037C65.4995 32.6194 65.6629 32.2564 65.8918 31.9357C66.1206 31.615 66.4103 31.3429 66.7443 31.135C68.3548 30.7372 69.9889 30.3639 71.6147 30.0231L74.0039 32.1415C74.2608 32.3692 74.5918 32.4948 74.9345 32.4948C75.2772 32.4948 75.6081 32.3692 75.8651 32.1415L78.2557 30.0226C79.881 30.3639 81.515 30.7372 83.1255 31.135H83.127ZM74.9429 26.0795C77.9089 26.0795 80.0738 22.3973 80.4537 18.8375C80.8052 15.5468 79.5549 13.18 77.1917 12.6543C75.7138 12.2948 74.1718 12.2948 72.694 12.6543C70.3206 13.1818 69.0645 15.545 69.416 18.8264C69.7953 22.3926 71.9664 26.0795 74.9415 26.0795H74.9429ZM73.3094 15.4095C73.3219 15.4069 73.3344 15.404 73.3467 15.4009C74.3954 15.1439 75.4903 15.1439 76.539 15.4009C76.5513 15.404 76.5638 15.4069 76.5763 15.4097C77.8918 15.6958 77.7074 18.0649 77.657 18.5369C77.3782 21.1508 75.9444 23.2557 74.9429 23.2557C73.9415 23.2557 72.4848 21.073 72.2131 18.526C72.1615 18.0562 71.9789 15.6986 73.308 15.4095H73.3094ZM6.33709 45.013C12.1061 44.9601 17.9562 44.9601 23.7259 45.013H23.7517C24.4775 45.0106 25.1737 44.7238 25.6919 44.2137C26.2102 43.7037 26.5097 43.0106 26.5266 42.2821C26.5602 40.5847 26.5475 38.8615 26.4894 37.1606C26.4869 37.0852 26.4783 37.0101 26.4637 36.9361C26.3103 36.1491 25.9859 35.4057 25.5138 34.7588C25.0417 34.1119 24.4334 33.5774 23.7322 33.1933C23.6259 33.1351 23.5126 33.0907 23.3951 33.0615C21.6139 32.6185 19.7975 32.2071 17.9968 31.8384C17.7836 31.7948 17.5632 31.8014 17.3529 31.8578C17.1427 31.9141 16.9483 32.0187 16.7852 32.1633L15.0316 33.7174L13.2776 32.1633C13.1145 32.0188 12.9202 31.9142 12.71 31.8578C12.4997 31.8014 12.2794 31.7948 12.0662 31.8384C10.2649 32.2071 8.44875 32.6187 6.66809 33.0615C6.5506 33.0907 6.43734 33.135 6.33111 33.1933C5.62976 33.5774 5.02134 34.1119 4.54917 34.7589C4.077 35.4059 3.75268 36.1495 3.5993 36.9367C3.58487 37.0106 3.57629 37.0855 3.57363 37.1608C3.51527 38.8617 3.50332 40.5846 3.53637 42.2823C3.55169 43.0158 3.85424 43.7137 4.37846 44.2248C4.90268 44.7359 5.60637 45.0191 6.33709 45.013ZM6.38033 37.3817C6.5389 36.7069 6.95566 36.1218 7.54049 35.753C8.99508 35.3937 10.4725 35.0561 11.9442 34.747L14.1017 36.6589C14.3586 36.8866 14.6896 37.0122 15.0323 37.0122C15.375 37.0122 15.7059 36.8866 15.9629 36.6589L18.1194 34.7463C19.5908 35.0561 21.0683 35.3937 22.5234 35.7523C23.1081 36.1213 23.5248 36.7063 23.6835 37.381C23.7363 38.9786 23.747 40.595 23.7162 42.1884C20.8347 42.162 17.933 42.1487 15.0326 42.1487C12.1322 42.1487 9.22992 42.162 6.34904 42.1884C6.3167 40.5957 6.32812 38.9793 6.38086 37.3817H6.38033ZM12.9445 18.5354C10.7023 19.0345 9.51381 21.2548 9.84234 24.336C10.1976 27.6655 12.2382 31.1094 15.0386 31.1094C17.8307 31.1094 19.8657 27.6706 20.2201 24.346C20.5495 21.2576 19.3669 19.0327 17.1327 18.5354C15.7565 18.2007 14.3207 18.2007 12.9445 18.5354ZM17.4238 24.0455C17.1802 26.3292 15.9087 28.2857 15.0386 28.2857C14.1623 28.2857 12.883 26.3244 12.6388 24.0353C12.5946 23.62 12.4309 21.5361 13.5598 21.2908C13.5722 21.288 13.5845 21.2851 13.5972 21.282C14.5443 21.05 15.533 21.05 16.48 21.282C16.4923 21.2851 16.5048 21.288 16.5173 21.2908C17.6574 21.5386 17.451 23.7896 17.4238 24.0455Z" fill="white"/>
</svg>
